<?xml version="1.0" encoding="utf-8"?>
<!-- Generator: Adobe Illustrator 16.0.0, SVG Export Plug-In . SVG Version: 6.00 Build 0)  -->
<!DOCTYPE svg PUBLIC "-//W3C//DTD SVG 1.1//EN" "http://www.w3.org/Graphics/SVG/1.1/DTD/svg11.dtd">
<svg version="1.1" id="图层_1" xmlns="http://www.w3.org/2000/svg" xmlns:xlink="http://www.w3.org/1999/xlink" x="0px" y="0px"
	 width="207px" height="40px" viewBox="0 0 207 40" enable-background="new 0 0 207 40" xml:space="preserve">
<g id="XMLID_125_">
	<g id="XMLID_31_">
		<path id="XMLID_109_" fill="none" d="M64.458,10.794L64.458,10.794L64.458,10.794z"/>
		<path id="XMLID_108_" fill="none" d="M62.255,16.879c-0.104,0.209-0.315,0.315-0.419,0.524
			C61.94,17.194,62.151,17.089,62.255,16.879z"/>
		<path id="XMLID_107_" fill="none" d="M57.01,27.581c-0.21-0.21-0.315-0.314-0.524-0.525C56.59,27.161,56.8,27.371,57.01,27.581z"
			/>
		<path id="XMLID_106_" fill="none" d="M40.328,6.493c0,0.104,0.105,0.104,0.105,0.209c0.524,1.364,1.574,2.098,2.833,2.728
			c0.209,0.105,0.314,0.105,0.524,0.21c-0.524-1.573-1.364-2.833-2.938-3.357c-0.21-0.104-0.314-0.104-0.419-0.209
			c-0.105,0.105-0.209,0.209-0.315,0.314C40.118,6.388,40.224,6.388,40.328,6.493C40.224,6.493,40.328,6.493,40.328,6.493z"/>
		<path id="XMLID_105_" fill="none" d="M44.629,20.132c-0.314,0.104-0.629,0.314-0.944,0.524C44,20.446,44.315,20.342,44.629,20.132
			z"/>
		<path id="XMLID_103_" fill="none" d="M57.639,28.105c-0.21-0.105-0.419-0.314-0.524-0.524
			C57.22,27.791,57.429,27.896,57.639,28.105z"/>
		<path id="XMLID_102_" fill="none" d="M61.311,23.489L61.311,23.489c-0.104,0-0.209,0-0.315,0h-0.104
			C61.102,23.489,61.207,23.489,61.311,23.489z"/>
		<path id="XMLID_101_" fill="none" d="M68.026,6.178c-0.105,0-0.105,0.104-0.21,0.104l0,0c-0.419,0.105-0.734,0.315-1.049,0.525
			c-0.315,0.21-0.63,0.524-0.84,0.839c-0.419,0.524-0.734,1.259-0.944,1.993c1.573-0.524,2.833-1.364,3.357-2.938
			c0.104-0.209,0.104-0.315,0.209-0.42c-0.105-0.104-0.209-0.209-0.314-0.314L68.13,6.073C68.026,6.073,68.026,6.178,68.026,6.178z"
			/>
		<path id="XMLID_100_" fill="none" d="M47.252,16.774c0.105,0,0.21,0,0.315,0h0.104c0.21,0,0.315,0,0.42,0.105
			C47.987,16.879,47.567,16.774,47.252,16.774z"/>
		<path id="XMLID_99_" fill="none" d="M61.731,17.509c-0.105,0.105-0.315,0.315-0.42,0.42
			C61.416,17.824,61.521,17.614,61.731,17.509z"/>
		<path id="XMLID_98_" fill="none" d="M61.416,23.489L61.416,23.489c0.21,0,0.524,0,0.735,0
			C61.94,23.489,61.731,23.489,61.416,23.489z"/>
		<path id="XMLID_97_" fill="none" d="M73.901,19.922c-0.105,0-0.21,0-0.315-0.104c-0.21-0.105-0.315-0.105-0.525-0.21h-0.104
			c-0.105,0-0.21-0.105-0.315-0.105h-0.105c-0.105,0-0.315,0-0.42,0l0,0l0,0c-0.209,0-0.419,0-0.524,0s-0.105,0-0.209,0
			c-0.42,0.105-0.524,0.105-0.629,0.105c-0.105,0-0.105,0-0.21,0.104c-0.105,0-0.315,0.105-0.42,0.105s-0.105,0-0.209,0.104
			c-0.21,0.105-0.42,0.21-0.629,0.21c1.469,0.63,2.937,0.944,4.406,0.314c0.21-0.104,0.315-0.104,0.525-0.104
			c0-0.105,0-0.105,0-0.21s0-0.104,0-0.21c0,0-0.105,0-0.21,0C73.901,19.922,73.901,19.922,73.901,19.922z"/>
		<path id="XMLID_96_" fill="none" d="M54.282,5.338L54.282,5.338c0.735-1.469,1.049-3.042,0.42-4.511
			c-0.105-0.209-0.105-0.314-0.105-0.524c-0.105,0-0.105,0-0.21,0s-0.105,0-0.21,0c0,0.21,0,0.315-0.104,0.524
			C53.337,2.401,53.652,3.87,54.282,5.338z"/>
		<path id="XMLID_95_" fill="#FFFFFF" d="M52.708,5.968c0.21,0.525,0.524,1.049,0.839,1.574l0.105,0.21
			c0.42,0.734,0.944,1.573,1.364,2.413c0.419,0.944,0.629,1.783,0.734,2.518l0,0c0.105,0,0.105,0,0.21,0
			c0.21-0.315,0.419-0.525,0.734-0.735c-0.209-1.049-0.839-2.203-1.678-3.672V8.171c-0.525-0.839-0.944-1.678-1.364-2.518
			c-0.524-1.259-1.259-3.042-0.315-5.036c0-0.105,0-0.105,0-0.21c-0.314,0-0.734,0-1.049,0.105
			C51.554,2.191,51.764,3.87,52.708,5.968z"/>
		<path id="XMLID_94_" fill="none" d="M60.367,23.384c0.105,0,0.315,0,0.42,0.105C60.682,23.489,60.577,23.384,60.367,23.384z"/>
		<path id="XMLID_93_" fill="none" d="M46.099,12.893L46.099,12.893c0.104,0,0.315,0.105,0.419,0.105
			C46.414,12.998,46.203,12.893,46.099,12.893z"/>
		<path id="XMLID_92_" fill="none" d="M68.341,33.876c0-0.105-0.105-0.105-0.105-0.21l0,0c-0.315-0.734-0.735-1.364-1.364-1.783
			c-0.629-0.42-1.259-0.84-2.098-1.05c0.524,1.574,1.364,2.833,2.938,3.357c0.209,0.104,0.314,0.104,0.419,0.21
			c0.105-0.105,0.21-0.21,0.315-0.315l-0.104-0.104C68.341,33.876,68.341,33.876,68.341,33.876z"/>
		<path id="XMLID_91_" fill="none" d="M47.777,23.489L47.777,23.489h-0.105H47.777z"/>
		<path id="XMLID_90_" fill="none" d="M61.94,27.267c-0.209-0.105-0.524-0.211-0.734-0.211
			C61.416,27.161,61.626,27.161,61.94,27.267z"/>
		<path id="XMLID_89_" fill="none" d="M55.017,31.147L55.017,31.147c-0.105-0.209-0.21-0.419-0.315-0.629
			C54.702,30.729,54.911,30.938,55.017,31.147z"/>
		<path id="XMLID_88_" fill="none" d="M47.147,23.489h0.105l0,0C47.252,23.489,47.252,23.489,47.147,23.489L47.147,23.489z"/>
		<path id="XMLID_87_" fill="none" d="M64.773,30.623c-0.21-0.104-0.419-0.104-0.629-0.21c-0.21-0.104-0.419-0.104-0.734-0.21
			C63.934,30.309,64.354,30.519,64.773,30.623z"/>
		<path id="XMLID_86_" fill="none" d="M47.147,16.774c-0.209,0-0.524,0-0.734,0C46.623,16.879,46.938,16.774,47.147,16.774z"/>
		<path id="XMLID_85_" fill="none" d="M40.643,34.19c0.105,0,0.21-0.105,0.21-0.105c1.574-0.524,2.308-1.888,2.938-3.356
			c-1.574,0.524-2.833,1.363-3.357,2.938c-0.105,0.21-0.105,0.314-0.209,0.419c0.104,0.105,0.209,0.21,0.314,0.315l0.105-0.105
			C40.538,34.19,40.643,34.19,40.643,34.19z"/>
		<path id="XMLID_84_" fill="none" d="M51.03,26.217c0,0.21,0,0.42-0.105,0.524C51.03,26.637,51.03,26.427,51.03,26.217z"/>
		<path id="XMLID_83_" fill="none" d="M54.597,39.751c0-0.104,0-0.21,0.105-0.21c0.209-0.524,0.315-1.049,0.315-1.679
			c0-0.944-0.315-1.889-0.735-2.728c-0.105-0.21-0.209-0.42-0.314-0.63c0.105,0.21,0.209,0.42,0.314,0.63
			c-0.629,1.469-0.944,2.938-0.314,4.406c0.105,0.21,0.105,0.314,0.105,0.524c0.104,0,0.104,0,0.209,0s0.105,0,0.21,0
			C54.492,39.961,54.492,39.855,54.597,39.751L54.597,39.751z"/>
		<path id="XMLID_81_" fill="#DFD379" d="M53.023,13.417c0.105,0,0.209,0,0.314-0.104c0.105,0,0.21,0,0.315,0
			c0-0.944,0.315-1.889,0.734-2.833c-0.419-0.839-0.944-1.783-1.469-2.623c-0.839,1.364-1.574,2.728-1.784,4.092
			c0,0.105,0,0.105,0,0.21c0.525,0.419,0.944,0.839,1.259,1.364c0.105,0,0.209,0,0.314-0.105
			C52.708,13.522,52.918,13.417,53.023,13.417z"/>
		<path id="XMLID_80_" fill="#DFD379" d="M54.282,5.338c0.42,0.84,0.944,1.784,1.469,2.623c0.315-0.629,0.629-1.154,0.944-1.679
			c0.944-1.993,1.259-3.776,0.629-5.665c-0.839-0.105-1.783-0.21-2.728-0.21c0,0.21,0,0.314,0.105,0.525
			C55.331,2.401,55.017,3.87,54.282,5.338z"/>
		<path id="XMLID_79_" fill="#E38E2D" d="M43.791,9.64c0.839,0.314,1.888,0.525,2.833,0.839c-0.209-0.839-0.42-1.679-0.734-2.413
			c-0.734-1.784-1.784-3.043-3.357-3.882c-0.734,0.524-1.469,1.154-2.098,1.784c0.104,0.105,0.315,0.21,0.419,0.21
			C42.426,6.808,43.266,8.171,43.791,9.64z"/>
		<path id="XMLID_78_" fill="#E38E2D" d="M48.616,16.355c0.105-0.105,0.105-0.21,0.21-0.315c0.105-0.105,0.105-0.105,0.21-0.21
			c-0.629-0.629-1.154-1.573-1.574-2.518l0,0c-0.315-0.105-0.629-0.21-0.944-0.315c-0.209,0-0.315-0.105-0.524-0.105
			c-0.42-0.105-0.944-0.209-1.469-0.315c0.315,1.469,0.734,2.833,1.364,3.882c0.105,0.21,0.314,0.42,0.42,0.525
			c0.209,0,0.524,0,0.734,0l0,0c0,0,0,0,0.105,0l0,0l0,0c0.315,0,0.63,0,0.944,0.104c0-0.104,0.105-0.209,0.105-0.314
			C48.512,16.564,48.512,16.459,48.616,16.355z"/>
		<path id="XMLID_77_" fill="#D9CB2E" d="M51.974,6.283c0.209,0.525,0.524,1.049,0.944,1.679c0.525,0.839,1.049,1.679,1.469,2.623
			c0.419,0.944,0.734,1.888,0.734,2.833c0.105,0,0.21,0,0.21,0c0.105,0,0.21,0,0.315,0.105c0.104,0,0.209,0.105,0.314,0.105
			s0.21,0,0.315,0.105l0,0l0,0c0.104-0.105,0.104-0.21,0.21-0.21c0.314-0.419,0.629-0.734,1.049-1.049c0-0.104,0-0.104,0-0.209
			c-0.21-1.364-0.944-2.728-1.784-4.092c-0.524-0.839-1.049-1.784-1.469-2.623l0,0c-0.629-1.679-0.944-3.147-0.314-4.616
			c0.105-0.21,0.105-0.315,0.105-0.525c-0.21,0-0.525,0-0.735,0c0,0.105,0,0.105,0,0.21c-0.839,1.993-0.209,3.882,0.315,5.036
			c0.315,0.84,0.839,1.679,1.364,2.518l0.104,0.105c0.839,1.364,1.469,2.518,1.679,3.672c-0.314,0.21-0.524,0.524-0.734,0.735
			c-0.105,0-0.105,0-0.21,0l0,0c-0.105-0.735-0.314-1.574-0.734-2.518c-0.419-0.84-0.839-1.679-1.364-2.413l-0.105-0.21
			c-0.42-0.524-0.734-1.154-0.944-1.574c-0.944-1.993-1.049-3.777-0.524-5.456c-0.314,0-0.524,0.105-0.839,0.105
			C50.819,2.506,51.03,4.29,51.974,6.283z"/>
		<path id="XMLID_76_" fill="#27A4A1" d="M47.462,13.313L47.462,13.313c0.734,0.314,1.469,0.629,1.994,1.049
			C48.931,13.942,48.197,13.627,47.462,13.313c-0.42-0.21-0.944-0.315-1.469-0.42c0.105,0,0.315,0.105,0.42,0.105
			C46.833,13.103,47.147,13.208,47.462,13.313z"/>
		<path id="XMLID_74_" fill="#27A4A1" d="M39.069,9.535c0.84,0.944,1.889,1.679,3.148,2.204c0.629,0.314,1.469,0.524,2.413,0.734
			c-0.839-0.209-1.678-0.419-2.413-0.734C40.958,11.214,39.909,10.479,39.069,9.535z"/>
		<path id="XMLID_73_" fill="#FFFFFF" d="M42.531,11.004c0.629,0.21,1.364,0.42,2.309,0.63h0.104
			c0.944,0.209,1.889,0.524,2.728,0.839c0.944,0.315,1.784,0.735,2.309,1.259l0,0c0.105-0.105,0.209-0.105,0.209-0.105h0.105H50.4
			c0.104,0,0.104-0.105,0.209-0.105s0.209-0.105,0.315-0.105l0,0c-0.105-0.104-0.315-0.314-0.42-0.419
			c-0.21-0.105-0.315-0.21-0.524-0.314c-0.944-0.63-2.309-0.944-3.567-1.259c-0.944-0.21-1.993-0.525-2.938-0.839
			c-1.364-0.419-3.147-1.364-3.882-3.357c0-0.104,0-0.104-0.105-0.104c-0.209,0.314-0.524,0.524-0.734,0.839
			C39.594,9.221,40.748,10.27,42.531,11.004z"/>
		<path id="XMLID_72_" fill="#E0782B" d="M42.217,11.739c0.629,0.314,1.469,0.524,2.413,0.734c0.42,0.105,0.944,0.21,1.469,0.315
			l0,0c0.419,0.105,0.944,0.315,1.469,0.42c0.734,0.314,1.469,0.629,1.993,1.049c0.21,0.104,0.315,0.314,0.525,0.419
			c0,0,0,0,0.104,0l0.105-0.105c0.105-0.105,0.21-0.105,0.315-0.21c0.105-0.104,0.209-0.104,0.315-0.209
			c0.105-0.105,0.209-0.105,0.314-0.21c0.105-0.105,0.21-0.105,0.315-0.105s0.209-0.105,0.315-0.105c0,0,0.105,0,0.105-0.105
			c0,0,0.104,0,0.104-0.105h0.105c0.104,0,0.104-0.105,0.21-0.105l0,0c-0.315-0.524-0.734-0.944-1.259-1.364l0,0
			c-0.209-0.105-0.419-0.314-0.524-0.419c-0.734-0.524-1.784-0.839-2.728-1.049c-0.315-0.105-0.735-0.21-1.049-0.315
			C45.889,10.06,44.944,9.745,44,9.43c-0.209-0.105-0.419-0.105-0.524-0.209c-1.259-0.524-2.308-1.364-2.833-2.728
			c0-0.105-0.105-0.21-0.105-0.21s0,0,0-0.104l-0.104-0.105c-0.209,0.209-0.315,0.42-0.524,0.524l0.104,0.105
			c0.735,1.994,2.518,2.938,3.882,3.357c0.944,0.314,1.889,0.629,2.938,0.839c1.259,0.315,2.623,0.629,3.567,1.259
			c0.209,0.105,0.314,0.21,0.524,0.314c0.209,0.105,0.314,0.21,0.419,0.42l0,0c-0.105,0-0.21,0.105-0.314,0.105
			c-0.105,0-0.105,0.105-0.21,0.105h-0.104H50.61c-0.105,0-0.209,0.105-0.209,0.105l0,0c-0.63-0.42-1.364-0.839-2.309-1.259
			c-0.839-0.314-1.889-0.524-2.728-0.839h-0.105c-0.944-0.21-1.679-0.42-2.308-0.63c-1.784-0.734-2.938-1.783-3.672-3.252
			c-0.21,0.21-0.315,0.42-0.525,0.629c0.21,0.42,0.42,0.735,0.734,1.049C39.909,10.479,40.958,11.214,42.217,11.739z"/>
		<path id="XMLID_71_" fill="#1568A6" d="M50.505,25.902c-0.104-0.105-0.21-0.105-0.315-0.21c-0.104-0.104-0.104-0.104-0.209-0.21
			c-0.629,0.629-1.574,1.154-2.518,1.573c-0.315,0.944-0.524,1.889-0.839,2.833c1.469-0.314,2.833-0.734,3.882-1.364
			c0.21-0.104,0.42-0.314,0.525-0.419c0-0.21,0-0.314,0-0.524c0-0.105,0-0.314,0-0.42s0-0.21,0-0.314c0-0.21,0-0.42,0.104-0.524
			c-0.104,0-0.209-0.105-0.315-0.105C50.715,26.007,50.61,25.902,50.505,25.902z"/>
		<path id="XMLID_70_" fill="#1568A6" d="M43.791,30.623c0.314-0.839,0.524-1.888,0.839-2.832c-0.839,0.209-1.678,0.419-2.413,0.733
			c-1.784,0.735-3.042,1.784-3.882,3.358c0.524,0.733,1.154,1.469,1.783,2.098c0.105-0.104,0.21-0.314,0.21-0.42
			C40.958,32.092,42.322,31.253,43.791,30.623z"/>
		<path id="XMLID_69_" fill="#FFFFFF" d="M45.154,31.883c0.21-0.63,0.419-1.364,0.63-2.309v-0.105
			c0.209-0.944,0.524-1.888,0.839-2.728c0.315-0.944,0.734-1.783,1.259-2.308l0,0c0-0.105-0.105-0.105-0.105-0.21
			c-0.21,0-0.42,0-0.63,0c-0.105,0-0.314,0-0.42,0c0,0.104-0.104,0.104-0.104,0.21c-0.629,0.944-0.944,2.308-1.259,3.566
			c-0.21,0.944-0.524,1.994-0.839,2.938c-0.42,1.363-1.364,3.146-3.357,3.882c-0.105,0-0.105,0-0.105,0.104
			c0.315,0.21,0.524,0.524,0.839,0.734C43.371,34.925,44.42,33.771,45.154,31.883z"/>
		<path id="XMLID_68_" fill="#A3BD42" d="M43.686,35.449c0.944-0.839,1.679-1.889,2.203-3.147c0.21-0.524,0.42-1.049,0.525-1.783
			c-0.21,0.629-0.315,1.259-0.525,1.783C45.364,33.561,44.629,34.61,43.686,35.449z"/>
		<path id="XMLID_67_" fill="#A3BD42" d="M47.252,23.489L47.252,23.489C47.252,23.489,47.147,23.489,47.252,23.489
			C47.147,23.489,47.252,23.489,47.252,23.489z"/>
		<path id="XMLID_66_" fill="#A3BD42" d="M47.462,27.056c0.315-0.839,0.734-1.678,1.259-2.308
			C48.197,25.378,47.777,26.111,47.462,27.056z"/>
		<path id="XMLID_65_" fill="#6DAB46" d="M45.889,32.197c0.21-0.525,0.42-1.05,0.525-1.784c0.104-0.21,0.104-0.419,0.209-0.629
			c0.21-0.944,0.524-1.889,0.839-2.833c0.315-0.84,0.734-1.679,1.259-2.308c0.105-0.105,0.105-0.21,0.21-0.21
			c-0.105-0.105-0.105-0.105-0.105-0.21c-0.105-0.104-0.105-0.21-0.21-0.315c-0.104-0.104-0.104-0.209-0.209-0.314
			c0-0.104-0.105-0.21-0.105-0.314l0,0l0,0c-0.105,0-0.315,0-0.419,0.104l0,0h-0.105c-0.105,0-0.21,0-0.42,0l0,0l0,0
			c0,0,0,0-0.105,0l0,0c-0.21,0-0.524,0-0.734,0l0,0c-0.104,0.105-0.209,0.21-0.315,0.42c0,0.104-0.104,0.104-0.104,0.21
			c-0.629,1.049-0.944,2.413-1.364,3.882c-0.209,0.944-0.524,1.889-0.839,2.833c-0.525,1.573-1.364,2.832-2.938,3.356
			c-0.104,0-0.209,0.105-0.209,0.105s0,0-0.105,0l-0.104,0.104c0.21,0.21,0.419,0.315,0.524,0.525c0,0,0.105,0,0.105-0.105
			c1.993-0.734,2.938-2.518,3.357-3.882c0.315-0.944,0.629-1.889,0.839-2.938c0.314-1.259,0.629-2.623,1.259-3.567
			c0-0.104,0.105-0.104,0.105-0.209c0.21,0,0.314,0,0.419,0c0.21,0,0.42,0,0.63,0c0,0.104,0.105,0.104,0.105,0.209l0,0
			c-0.42,0.63-0.84,1.364-1.259,2.309c-0.314,0.839-0.524,1.888-0.839,2.728v0.104c-0.21,0.944-0.42,1.679-0.63,2.309
			c-0.734,1.783-1.784,2.938-3.252,3.672c0.209,0.21,0.42,0.314,0.629,0.524c0.42-0.21,0.735-0.419,1.049-0.734
			C44.629,34.61,45.364,33.561,45.889,32.197z"/>
		<path id="XMLID_64_" fill="#DFD379" d="M54.282,35.029c-0.105-0.209-0.209-0.419-0.314-0.629c-0.315-0.63-0.735-1.364-1.049-1.993
			c-0.314,0.629-0.629,1.153-0.944,1.678c-0.944,1.994-1.259,3.777-0.63,5.666c0.839,0.104,1.784,0.21,2.728,0.21
			c0-0.21,0-0.314-0.105-0.524C53.337,37.968,53.652,36.499,54.282,35.029z"/>
		<path id="XMLID_63_" fill="#DFD379" d="M55.96,26.847c-0.105,0-0.21,0.104-0.314,0.104c-0.105,0-0.21,0-0.315,0.104
			c-0.105,0-0.21,0-0.314,0c0,0.944-0.315,1.889-0.735,2.833c0.105,0.21,0.21,0.42,0.315,0.63s0.209,0.42,0.314,0.629
			c0.21,0.42,0.525,0.84,0.735,1.26c0.839-1.364,1.574-2.729,1.783-4.092c0-0.105,0-0.105,0-0.21l0,0
			C57.22,28,57.01,27.791,56.905,27.581l0,0c-0.21-0.21-0.314-0.314-0.525-0.525l0,0c-0.104-0.104-0.104-0.104-0.209-0.209l0,0l0,0
			C56.17,26.741,56.065,26.847,55.96,26.847z"/>
		<path id="XMLID_62_" fill="#FFFFFF" d="M55.96,34.4c-0.21-0.524-0.524-1.049-0.839-1.573l-0.104-0.211
			c-0.42-0.733-0.944-1.573-1.364-2.413c-0.42-0.943-0.629-1.783-0.734-2.518l0,0c-0.105,0-0.21,0-0.314-0.104h-0.105h-0.105
			c-0.105,0-0.21,0-0.21-0.105c-0.105,0-0.209-0.104-0.314-0.104l0,0c0,0.21,0,0.42,0,0.629l0,0v0.105
			c0.209,1.154,0.839,2.413,1.678,3.882l0.105,0.104c0.524,0.84,0.944,1.679,1.364,2.519c0.524,1.259,1.259,3.042,0.314,5.036
			c0,0.104,0,0.104,0,0.209c0.315,0,0.734,0,1.049-0.104C57.01,38.072,56.905,36.499,55.96,34.4z"/>
		<path id="XMLID_61_" fill="#A3BD42" d="M57.324,39.751L57.324,39.751c0.21-0.734,0.315-1.574,0.315-2.308
			C57.639,38.177,57.535,39.017,57.324,39.751z"/>
		<path id="XMLID_60_" fill="#A3BD42" d="M54.282,35.029c-0.314-0.839-0.839-1.783-1.364-2.622c0.419,0.629,0.734,1.363,1.049,1.993
			C54.072,34.61,54.177,34.82,54.282,35.029z"/>
		<path id="XMLID_59_" fill="#D9CB2E" d="M56.695,34.085c-0.209-0.524-0.524-1.049-0.944-1.678c-0.209-0.42-0.524-0.84-0.734-1.26
			l0,0c-0.105-0.209-0.21-0.419-0.315-0.629c-0.105-0.21-0.21-0.42-0.315-0.63l0,0c-0.419-0.944-0.734-1.889-0.734-2.833
			c-0.105,0-0.209,0-0.209,0c-0.105,0-0.21,0-0.315-0.104c-0.105,0-0.21-0.104-0.315-0.104s-0.21,0-0.314-0.105
			c-0.105,0-0.21-0.104-0.315-0.104s-0.209-0.105-0.314-0.105c-0.105,0-0.21-0.104-0.315-0.104s-0.21-0.104-0.315-0.104l0,0
			c0,0.209,0,0.419-0.105,0.524c0,0.104,0,0.209,0,0.314s0,0.314,0,0.419c0,0.211,0,0.315,0,0.525c0,0.104,0,0.104,0,0.21
			c0.21,1.363,0.944,2.728,1.784,4.092c0.525,0.839,1.049,1.783,1.469,2.622c0.419,0.944,0.734,1.889,0.734,2.729
			c0,0.524-0.104,1.049-0.315,1.679c0,0.104-0.104,0.21-0.104,0.21s0,0,0,0.104s0,0.104,0,0.21c0.209,0,0.524,0,0.734,0
			c0-0.105,0-0.105,0-0.21c0.839-1.993,0.21-3.882-0.315-5.036c-0.419-0.839-0.839-1.679-1.364-2.518l-0.105-0.105
			c-0.839-1.469-1.574-2.623-1.678-3.882v-0.104V28c0-0.209,0-0.419,0-0.629l0,0c0.104,0,0.209,0.104,0.314,0.104s0.21,0,0.21,0.105
			h0.105h0.104c0.105,0,0.21,0,0.315,0.104l0,0c0.105,0.734,0.314,1.574,0.734,2.518c0.419,0.84,0.839,1.68,1.364,2.413l0.105,0.211
			c0.315,0.524,0.629,1.049,0.839,1.573c0.944,1.993,1.049,3.776,0.525,5.455c0.314,0,0.524-0.104,0.839-0.104
			c0.21-0.734,0.315-1.574,0.315-2.308C57.535,36.289,57.22,35.239,56.695,34.085z"/>
		<path id="XMLID_58_" fill="#E38E2D" d="M62.255,23.384L62.255,23.384c-0.315,0-0.524,0-0.734,0c0,0,0,0-0.105,0l0,0
			c-0.105,0-0.314,0-0.42,0c0,0,0,0-0.104,0l0,0c-0.105,0-0.314,0-0.42-0.104l0,0l0,0l0,0l0,0c0,0.104-0.105,0.21-0.105,0.314
			c-0.104,0.105-0.104,0.21-0.209,0.314c-0.105,0.105-0.105,0.211-0.21,0.315s-0.105,0.104-0.21,0.21
			c0.629,0.629,1.154,1.573,1.574,2.518c0.21,0.104,0.525,0.21,0.734,0.21c0.21,0.105,0.42,0.105,0.63,0.21
			c0.419,0.104,0.944,0.21,1.469,0.42c-0.315-1.469-0.734-2.833-1.364-3.883C62.465,23.804,62.36,23.594,62.255,23.384
			L62.255,23.384L62.255,23.384z"/>
		<path id="XMLID_57_" fill="#E38E2D" d="M64.773,30.623c-0.419-0.21-0.944-0.314-1.364-0.42c-0.42-0.104-0.944-0.209-1.469-0.419
			c0.21,0.839,0.42,1.679,0.735,2.413c0.734,1.783,1.783,3.042,3.357,3.882c0.735-0.524,1.469-1.154,2.098-1.784
			c-0.104-0.104-0.314-0.21-0.419-0.21C66.137,33.561,65.403,32.197,64.773,30.623z"/>
		<path id="XMLID_56_" fill="#E9A32D" d="M57.01,27.581L57.01,27.581c0.21,0.21,0.419,0.419,0.629,0.524l0,0l0,0
			c0.21,0.104,0.42,0.314,0.525,0.419c-0.21-0.104-0.42-0.314-0.525-0.419c-0.419-0.314-0.734-0.734-1.049-1.05l0,0
			C56.59,27.161,56.8,27.371,57.01,27.581z"/>
		<path id="XMLID_55_" fill="#E9A32D" d="M61.94,29.889c0.42,0.105,0.944,0.21,1.469,0.42c0.21,0.104,0.419,0.104,0.734,0.21
			C63.41,30.203,62.675,29.994,61.94,29.889c-1.259-0.314-2.413-0.629-3.357-1.153C59.528,29.26,60.787,29.574,61.94,29.889
			L61.94,29.889z"/>
		<path id="XMLID_54_" fill="#E9A32D" d="M59.737,26.427c-0.419-0.21-0.839-0.524-1.154-0.839
			C58.898,25.797,59.318,26.111,59.737,26.427z"/>
		<path id="XMLID_53_" fill="#FFFFFF" d="M66.032,29.26c-0.629-0.21-1.363-0.42-2.308-0.63H63.62
			c-0.944-0.21-1.889-0.524-2.728-0.839c-0.944-0.315-1.783-0.735-2.308-1.26l0,0c-0.105,0.105-0.21,0.105-0.315,0.21h-0.104h-0.105
			c-0.105,0-0.105,0.105-0.21,0.105c-0.105,0-0.21,0.104-0.314,0.104l0,0c0.104,0.104,0.314,0.21,0.419,0.42
			c0.21,0.104,0.315,0.21,0.525,0.314c0.944,0.63,2.308,0.944,3.567,1.259c0.944,0.21,1.994,0.524,2.938,0.84
			c1.364,0.419,3.147,1.363,3.882,3.357c0,0.104,0,0.104,0.105,0.104c0.209-0.314,0.524-0.524,0.734-0.839
			C69.075,31.147,67.816,29.994,66.032,29.26z"/>
		<path id="XMLID_52_" fill="#E9A32D" d="M68.236,33.561L68.236,33.561L68.236,33.561c-0.315-0.733-0.735-1.363-1.364-1.783
			C67.501,32.197,67.921,32.827,68.236,33.561z"/>
		<path id="XMLID_51_" fill="#E0782B" d="M68.445,29.784c-0.629-0.42-1.364-0.84-2.098-1.154c-0.629-0.314-1.469-0.524-2.413-0.734
			l0,0c-0.42-0.104-0.944-0.21-1.469-0.42c-0.21-0.104-0.42-0.104-0.629-0.209c-0.21-0.105-0.525-0.211-0.734-0.211
			c-0.524-0.209-0.944-0.419-1.469-0.629c-0.42-0.21-0.839-0.524-1.154-0.839c0,0-0.105,0-0.105,0.104c0,0-0.105,0-0.105,0.104
			c-0.104,0.105-0.209,0.105-0.315,0.21c-0.104,0.104-0.209,0.104-0.314,0.21c-0.104,0.105-0.21,0.105-0.315,0.21
			c-0.104,0.104-0.209,0.104-0.314,0.104s-0.21,0.105-0.315,0.105c-0.104,0-0.209,0.104-0.315,0.104
			c-0.104,0-0.209,0.105-0.314,0.105l0,0l0,0l0,0c0.105,0.104,0.105,0.209,0.21,0.209c0.315,0.42,0.629,0.735,1.049,1.05
			c0.21,0.104,0.42,0.314,0.525,0.419c0.104,0.105,0.21,0.105,0.419,0.211c0.944,0.524,2.203,0.839,3.357,1.153
			c0.734,0.21,1.469,0.314,2.099,0.524c0.209,0.105,0.419,0.105,0.629,0.21c0.734,0.315,1.469,0.63,2.098,1.049
			c0.629,0.42,1.049,1.05,1.364,1.784l0,0c0,0.104,0.105,0.21,0.105,0.21s0,0,0,0.104l0.105,0.105c0.21-0.21,0.315-0.42,0.524-0.524
			l-0.105-0.105c-0.734-1.993-2.518-2.938-3.882-3.357c-0.944-0.314-1.888-0.629-2.938-0.839c-1.259-0.314-2.623-0.63-3.567-1.259
			c-0.21-0.105-0.315-0.21-0.524-0.315c-0.21-0.104-0.315-0.209-0.42-0.42l0,0c0.105,0,0.209-0.104,0.314-0.104
			c0.105,0,0.105-0.104,0.21-0.104h0.105h0.105c0.104-0.105,0.21-0.105,0.315-0.21l0,0c0.629,0.419,1.364,0.839,2.308,1.259
			c0.944,0.314,1.889,0.524,2.728,0.84h0.105c0.944,0.209,1.679,0.419,2.308,0.629c1.784,0.734,2.938,1.783,3.673,3.252
			c0.209-0.209,0.314-0.419,0.524-0.629c-0.21-0.42-0.42-0.734-0.735-1.049C69.285,30.413,68.865,30.099,68.445,29.784z"/>
		<path id="XMLID_50_" fill="#6DAB46" d="M69.18,20.132c-0.419,0.21-0.839,0.42-1.364,0.63c-0.419,0.209-0.839,0.524-1.364,0.734
			c0.629,0.314,1.154,0.629,1.678,0.943c1.994,0.944,3.777,1.26,5.666,0.63c0.105-0.839,0.21-1.783,0.21-2.728
			c-0.21,0-0.315,0-0.524,0.104C72.117,21.181,70.648,20.866,69.18,20.132z"/>
		<path id="XMLID_49_" fill="#6DAB46" d="M66.242,18.873c0.105-0.105,0.21-0.105,0.314-0.21c-1.363-0.839-2.728-1.574-4.091-1.783
			c-0.105,0-0.105,0-0.21,0c-0.104,0.209-0.315,0.315-0.419,0.524l-0.105,0.105c-0.105,0.105-0.315,0.315-0.42,0.42l0,0
			c-0.104,0.104-0.209,0.209-0.315,0.315c0,0.104,0,0.209,0.105,0.314c0,0.104,0.105,0.21,0.105,0.315c0,0.104,0,0.209,0.104,0.314
			c0,0.105,0,0.21,0,0.314c0.944,0,1.889,0.315,2.833,0.734c0.105-0.104,0.314-0.104,0.419-0.209c0.524-0.21,1.049-0.525,1.574-0.84
			C66.032,18.978,66.137,18.978,66.242,18.873z"/>
		<path id="XMLID_48_" fill="#FFFFFF" d="M68.55,18.558c-0.524,0.21-1.049,0.524-1.574,0.839l-0.314,0.21
			c-0.735,0.42-1.574,0.944-2.413,1.363c-0.944,0.42-1.784,0.63-2.518,0.734l0,0c0,0.105,0,0.21-0.105,0.315v0.104v0.105
			c0,0.104,0,0.209-0.105,0.314c0,0.104-0.105,0.21-0.105,0.314l0,0c0.21,0,0.42,0,0.629,0h0.105h0.104
			c1.154-0.21,2.414-0.839,3.882-1.679l0.105-0.104c0.839-0.524,1.679-0.944,2.518-1.364c1.154-0.524,2.098-0.734,3.042-0.734
			c0.629,0,1.364,0.105,1.993,0.42c0.105,0,0.105,0,0.21,0c0-0.315,0-0.735-0.104-1.049c-0.735-0.21-1.364-0.315-2.099-0.315
			C70.859,17.719,69.81,17.929,68.55,18.558z"/>
		<path id="XMLID_47_" fill="#E9A32D" d="M61.311,20.866c-0.104,0-0.104,0-0.209,0C61.207,20.866,61.207,20.866,61.311,20.866
			L61.311,20.866z"/>
		<path id="XMLID_46_" fill="#1568A6" d="M73.271,17.089c-0.105,0-0.21,0-0.314,0c-0.21,0-0.315,0-0.525-0.104
			c-0.104,0-0.21,0-0.315,0c-0.104,0-0.209,0-0.209,0c-0.105,0-0.21,0-0.315,0c0,0,0,0-0.105,0c-0.209,0-0.524,0-0.734,0.104h-0.105
			c-0.209,0-0.524,0.105-0.734,0.21H69.81c-0.21,0.104-0.524,0.104-0.735,0.209H68.97c-0.21,0.105-0.525,0.21-0.734,0.315
			c-0.42,0.209-0.839,0.42-1.364,0.734c-0.104,0.104-0.209,0.104-0.315,0.21c-0.104,0.105-0.209,0.105-0.314,0.209
			c-0.105,0.105-0.21,0.105-0.315,0.21c-0.524,0.314-0.944,0.524-1.573,0.84l0,0c-0.105,0.104-0.315,0.104-0.42,0.209l0,0
			c-0.209,0.105-0.42,0.21-0.629,0.315l0,0c-0.21,0.104-0.42,0.104-0.629,0.21c0,0,0,0-0.105,0c-0.21,0.104-0.419,0.104-0.63,0.104
			h-0.104c-0.21,0-0.42,0-0.525,0l0,0c-0.104,0-0.104,0-0.209,0l0,0c0,0.104,0,0.21,0,0.21c0,0.104,0,0.21-0.105,0.314v0.105
			c0,0.104,0,0.104-0.104,0.21c0,0.104,0,0.209-0.105,0.314c0,0.104-0.105,0.21-0.105,0.314s-0.104,0.21-0.104,0.314
			c0,0.105-0.105,0.21-0.105,0.314c0,0.105-0.105,0.211-0.105,0.315l0,0l0,0l0,0l0,0c0.105,0,0.315,0,0.42,0.104l0,0
			c0,0,0,0,0.105,0h0.104c0.105,0,0.21,0,0.315,0l0,0l0,0c0,0,0,0,0.105,0l0,0c0.21,0,0.524,0,0.735,0l0,0l0,0l0,0
			c0.104,0,0.104,0,0.209,0c0.839-0.104,1.679-0.524,2.518-0.944c0.524-0.314,1.049-0.524,1.574-0.839l0,0
			c0.419-0.21,0.839-0.524,1.364-0.734c0.42-0.21,0.839-0.42,1.364-0.63c0.21-0.104,0.42-0.209,0.63-0.209
			c0.105,0,0.105,0,0.209-0.105c0.105,0,0.315-0.104,0.42-0.104s0.105,0,0.209-0.105c0.105,0,0.315-0.104,0.42-0.104s0.105,0,0.21,0
			c0.21,0,0.419,0,0.524,0l0,0l0,0l0,0c0.105,0,0.314,0,0.419,0h0.105c0.104,0,0.209,0,0.314,0.104h0.105
			c0.21,0,0.314,0.105,0.524,0.21c0.105,0,0.21,0.105,0.315,0.105c0,0,0,0,0.104,0c0.105,0,0.105,0,0.21,0c0-0.315,0-0.525,0-0.735
			c-0.105,0-0.105,0-0.21,0c-0.629-0.315-1.363-0.419-1.993-0.419c-0.944,0-1.888,0.209-3.042,0.734
			c-0.839,0.42-1.679,0.839-2.518,1.363l-0.105,0.105c-1.469,0.839-2.623,1.573-3.881,1.679h-0.105H61.94c-0.209,0-0.419,0-0.629,0
			l0,0c0-0.105,0.105-0.21,0.105-0.315c0-0.104,0-0.209,0.105-0.314v-0.104v-0.105c0-0.104,0-0.21,0.105-0.314l0,0
			c0.734-0.104,1.574-0.314,2.518-0.734c0.839-0.42,1.679-0.839,2.413-1.364l0.21-0.104c0.524-0.315,1.049-0.629,1.574-0.839
			c1.259-0.525,2.308-0.839,3.357-0.839c0.63,0,1.364,0.105,2.098,0.314c0-0.314-0.105-0.524-0.105-0.839c0,0,0,0-0.104,0
			C73.691,17.089,73.481,17.089,73.271,17.089z"/>
		<path id="XMLID_45_" fill="#6DAB46" d="M39.489,20.132L39.489,20.132c0.315-0.104,0.629-0.314,0.944-0.524
			c0.105-0.105,0.209-0.105,0.315-0.21c0.419-0.21,0.839-0.524,1.259-0.735c-0.629-0.314-1.154-0.629-1.679-0.944
			c-1.993-0.944-3.777-1.259-5.666-0.63c-0.104,0.84-0.21,1.784-0.21,2.729c0.21,0,0.315,0,0.524-0.105
			C36.551,19.188,38.02,19.502,39.489,20.132z"/>
		<path id="XMLID_44_" fill="#6DAB46" d="M48.092,23.069c0-0.105-0.105-0.21-0.105-0.314c0-0.105-0.104-0.21-0.104-0.315
			c0-0.104-0.105-0.209-0.105-0.314c0-0.104-0.105-0.21-0.105-0.314c0-0.105-0.104-0.21-0.104-0.314c0-0.105,0-0.21-0.105-0.315
			c0-0.104,0-0.21,0-0.314c-0.944,0-1.889-0.314-2.833-0.734c-0.314,0.104-0.629,0.314-0.944,0.524
			c-0.525,0.314-1.049,0.63-1.574,0.944c1.364,0.839,2.729,1.574,4.092,1.783c0.105,0,0.105,0,0.21,0l0,0c0.209,0,0.524,0,0.734,0
			h0.105c0.105,0,0.21,0,0.419,0h0.105c0.209,0,0.314,0,0.419-0.104l0,0l0,0C48.197,23.279,48.197,23.175,48.092,23.069z"/>
		<path id="XMLID_43_" fill="#1568A6" d="M64.773,9.64L64.773,9.64c-0.104,0.314-0.21,0.734-0.315,1.154l0,0
			c-0.104,0.524-0.314,1.049-0.419,1.678c0.839-0.209,1.679-0.419,2.413-0.734c1.784-0.735,3.042-1.784,3.882-3.357
			C69.81,7.647,69.18,6.912,68.55,6.283c-0.105,0.105-0.209,0.315-0.209,0.42C67.606,8.276,66.347,9.116,64.773,9.64z"/>
		<path id="XMLID_42_" fill="#1568A6" d="M58.164,11.843c-0.21,0.105-0.42,0.315-0.525,0.42c-0.419,0.314-0.734,0.734-1.049,1.049
			c-0.105,0.104-0.105,0.104-0.21,0.209l0,0l0,0c0.105,0,0.21,0.105,0.315,0.105c0.105,0,0.21,0.105,0.315,0.105
			s0.21,0.105,0.314,0.105c0.105,0,0.21,0.105,0.315,0.105c0.105,0,0.21,0.104,0.314,0.21c0.105,0.105,0.21,0.105,0.315,0.209
			c0.105,0.105,0.21,0.105,0.315,0.21s0.105,0.105,0.209,0.21c0.629-0.629,1.574-1.154,2.518-1.574
			c0.315-0.944,0.525-1.889,0.84-2.833C60.577,10.794,59.213,11.214,58.164,11.843z"/>
		<path id="XMLID_40_" fill="#DFD379" d="M47.462,19.188c0-0.105,0-0.21,0.105-0.314C47.567,18.978,47.567,19.083,47.462,19.188
			c0,0.105,0,0.21,0,0.21c-0.105,0-0.105,0-0.21,0l0,0c0.105,0,0.105,0,0.21,0C47.462,19.397,47.462,19.292,47.462,19.188z"/>
		<path id="XMLID_39_" fill="#FFFFFF" d="M40.013,21.811c0.525-0.21,1.049-0.524,1.574-0.84l0.21-0.104
			c0.734-0.42,1.574-0.944,2.413-1.364c0.944-0.419,1.784-0.629,2.518-0.734l0,0c0-0.105,0-0.21,0.105-0.315v-0.105v-0.104
			c0-0.105,0-0.21,0.105-0.21c0-0.104,0.104-0.209,0.104-0.314l0,0c-0.209,0-0.419,0-0.629,0h-0.105h-0.105
			c-1.154,0.21-2.413,0.839-3.881,1.679l-0.105,0.104c-0.839,0.525-1.679,0.944-2.518,1.364c-1.154,0.524-2.098,0.734-3.042,0.734
			c-0.63,0-1.364-0.104-1.994-0.42c-0.104,0-0.104,0-0.21,0c0,0.315,0,0.734,0.105,1.05c0.734,0.209,1.363,0.314,2.098,0.314
			C37.706,22.649,38.859,22.335,40.013,21.811z"/>
		<path id="XMLID_38_" fill="#DFD379" d="M44.629,20.132c-0.839,0.42-1.783,0.944-2.623,1.469c0.524-0.314,1.049-0.63,1.574-0.944
			C44,20.446,44.315,20.342,44.629,20.132z"/>
		<path id="XMLID_37_" fill="#1568A6" d="M35.292,23.279c0.105,0,0.21,0,0.315,0c0.21,0,0.314,0,0.525,0.104
			c0.104,0,0.209,0,0.314,0c0.104,0,0.21,0,0.21,0c0.105,0,0.209,0,0.314,0h0.105c0.21,0,0.525,0,0.734-0.104h0.105
			c0.21,0,0.42-0.104,0.735-0.21h0.104c0.21-0.105,0.525-0.105,0.734-0.21h0.105c0.21-0.104,0.524-0.21,0.734-0.314
			c0.524-0.21,1.049-0.524,1.679-0.944c0.839-0.524,1.679-1.049,2.623-1.469c0.21-0.104,0.42-0.21,0.63-0.314c0,0,0,0,0.105,0
			c0.209-0.105,0.42-0.105,0.629-0.21c0,0,0,0,0.105,0c0.21-0.105,0.419-0.105,0.629-0.105h0.105c0.209,0,0.419,0,0.524,0l0,0
			c0.105,0,0.105,0,0.21,0c0-0.104,0-0.209,0-0.209c0-0.105,0-0.21,0.104-0.315c0-0.104,0.105-0.209,0.105-0.315
			c0-0.104,0-0.209,0.105-0.314c0-0.104,0.104-0.21,0.104-0.315c0-0.104,0.105-0.209,0.105-0.314s0.105-0.21,0.105-0.315
			c0-0.104,0.105-0.209,0.105-0.315l0,0c-0.105,0-0.315,0-0.419-0.104h-0.105c-0.105,0-0.21,0-0.315,0l0,0l0,0c0,0,0,0-0.105,0l0,0
			c-0.21,0-0.524,0-0.734,0c-0.105,0-0.105,0-0.21,0c-0.524,0.104-1.049,0.21-1.573,0.419c-0.21,0.105-0.315,0.105-0.525,0.21
			c-0.524,0.21-1.049,0.524-1.574,0.839c-0.21,0.105-0.315,0.209-0.524,0.315c-0.42,0.209-0.839,0.524-1.259,0.734l0,0
			c-0.105,0.105-0.209,0.105-0.315,0.21c-0.314,0.21-0.629,0.315-0.944,0.524l0,0c-0.21,0.105-0.419,0.21-0.63,0.21
			c-0.104,0-0.104,0-0.209,0.105c-0.105,0-0.315,0.104-0.42,0.104c-0.104,0-0.104,0-0.209,0.105c-0.105,0-0.315,0.104-0.42,0.104
			c-0.104,0-0.104,0-0.209,0c-0.21,0-0.42,0-0.525,0l0,0l0,0l0,0c-0.105,0-0.314,0-0.419,0h-0.105c-0.104,0-0.209,0-0.314-0.104
			h-0.104c-0.21,0-0.315-0.105-0.525-0.21c-0.105,0-0.21-0.105-0.315-0.105h-0.104h-0.105c0,0.315,0,0.524,0,0.734
			c0.105,0,0.105,0,0.209,0c0.629,0.315,1.364,0.42,1.994,0.42c0.944,0,1.889-0.21,3.042-0.734c0.839-0.42,1.679-0.839,2.518-1.364
			l0.105-0.104c1.469-0.839,2.623-1.574,3.882-1.679h0.105h-0.315c0.21,0,0.419,0,0.629,0l0,0c0,0.105-0.105,0.21-0.105,0.314
			c0,0.105,0,0.21-0.105,0.21v0.104v0.105c0,0.105,0,0.209-0.104,0.315l0,0c-0.735,0.105-1.574,0.314-2.518,0.734
			c-0.839,0.42-1.679,0.84-2.413,1.364l-0.21,0.104c-0.524,0.315-1.049,0.63-1.573,0.84c-1.259,0.524-2.309,0.839-3.358,0.839
			c-0.629,0-1.364-0.104-2.098-0.314c0,0.314,0.105,0.524,0.105,0.84c0,0,0,0,0.104,0C34.977,23.175,35.083,23.279,35.292,23.279z"
			/>
		<path id="XMLID_36_" fill="#DFD379" d="M61.731,17.509l0.105-0.105c0.104-0.104,0.315-0.315,0.419-0.524
			c-0.315,0.42-0.629,0.734-0.944,1.049l0,0C61.416,17.824,61.521,17.614,61.731,17.509z"/>
		<path id="XMLID_35_" fill="#FFFFFF" d="M63.41,8.381c-0.21,0.629-0.42,1.364-0.629,2.308v0.105
			c-0.21,0.944-0.525,1.889-0.84,2.728c-0.314,0.944-0.734,1.784-1.259,2.308l0,0c0.105,0.105,0.105,0.21,0.105,0.21v0.104v0.105
			c0,0.105,0.105,0.105,0.105,0.209c0,0.105,0.104,0.21,0.104,0.315l0,0c0.105-0.105,0.315-0.315,0.42-0.419
			c0.105-0.21,0.21-0.315,0.315-0.525c0.629-0.944,0.944-2.308,1.259-3.567c0.21-0.944,0.524-1.994,0.839-2.938
			c0.42-1.364,1.364-3.147,3.357-3.882c0,0,0.105,0,0.105-0.105c-0.315-0.209-0.524-0.524-0.839-0.734
			C65.193,5.443,64.144,6.598,63.41,8.381z"/>
		<path id="XMLID_34_" fill="#DFD379" d="M64.773,9.64L64.773,9.64c0.21-0.734,0.524-1.364,0.944-1.993
			C65.403,8.276,65.088,8.906,64.773,9.64c-0.104,0.314-0.21,0.734-0.315,1.154l0,0C64.563,10.479,64.669,10.06,64.773,9.64z"/>
		<path id="XMLID_33_" fill="#DFD379" d="M59.633,15.83c0.104,0.105,0.104,0.105,0.104,0.21
			C59.737,15.935,59.737,15.935,59.633,15.83L59.633,15.83z"/>
		<path id="XMLID_32_" fill="#6DAB46" d="M62.675,8.067c-0.315,0.629-0.524,1.468-0.735,2.413l0,0
			c-0.209,0.944-0.524,1.889-0.839,2.833c-0.315,0.944-0.839,1.889-1.574,2.518c0.105,0.105,0.105,0.105,0.105,0.21
			c0.104,0.104,0.104,0.21,0.209,0.315c0.105,0.104,0.105,0.209,0.21,0.314s0.105,0.21,0.21,0.315
			c0.104,0.104,0.104,0.21,0.104,0.315c0,0.104,0.105,0.209,0.105,0.314s0.105,0.21,0.105,0.315c0,0.104,0.104,0.209,0.104,0.315
			l0,0c0.105-0.105,0.21-0.21,0.314-0.315c0.315-0.315,0.63-0.629,0.944-1.049c0.105-0.21,0.315-0.42,0.42-0.524
			c0.315-0.525,0.524-1.049,0.734-1.784c0.21-0.629,0.419-1.364,0.525-2.099l0,0c0.105-0.524,0.314-1.154,0.419-1.678l0,0
			c0.105-0.42,0.21-0.734,0.315-1.154c0.209-0.734,0.524-1.364,0.944-1.993c0.21-0.315,0.525-0.629,0.839-0.839
			c0.315-0.21,0.63-0.42,1.049-0.525l0,0c0.105,0,0.21-0.104,0.21-0.104s0,0,0.104,0l0.105-0.105
			c-0.209-0.21-0.419-0.315-0.524-0.524c0,0-0.105,0-0.105,0.104c-1.993,0.734-2.938,2.518-3.357,3.882
			c-0.315,0.944-0.63,1.889-0.839,2.938c-0.315,1.259-0.629,2.623-1.259,3.567c-0.105,0.21-0.21,0.315-0.314,0.524
			c-0.105,0.21-0.21,0.315-0.42,0.42l0,0c0-0.105-0.105-0.21-0.105-0.315s-0.104-0.105-0.104-0.21v-0.104V16.25
			c0-0.105-0.105-0.21-0.105-0.21l0,0c0.42-0.629,0.839-1.364,1.259-2.308c0.314-0.944,0.524-1.889,0.839-2.728v-0.105
			c0.21-0.944,0.419-1.678,0.629-2.308c0.734-1.784,1.784-2.938,3.252-3.672c-0.21-0.21-0.42-0.314-0.629-0.525
			C64.458,5.024,63.41,6.388,62.675,8.067z"/>
	</g>
	<g id="XMLID_2_">
		<path id="XMLID_28_" fill="#FFFFFF" d="M16.617,33.561v2.938v0.629c0,0.734-0.21,1.364-0.734,1.784
			c-0.524,0.419-1.049,0.734-1.784,0.734c-0.419,0-0.629-0.105-0.839-0.315c-0.21-0.21-0.315-0.524-0.315-0.734
			c0-0.314,0.104-0.524,0.315-0.839c0.209-0.21,0.419-0.42,0.839-0.42c0.105,0,0.21-0.105,0.21-0.42s0.105-0.629,0.105-0.944
			c0-0.314,0-0.734,0-1.049s0-0.524,0-0.63v-0.734v-6.085v-6.505v-0.839c0-0.104,0-0.21,0-0.104c0,0,0,0.104,0.105,0.104
			c0,0.104,0,0.21,0.105,0.42c-0.105-0.21-0.315-0.42-0.419-0.63c-0.105-0.21-0.315-0.42-0.42-0.629
			c-0.735-1.049-1.469-2.098-2.098-3.148c-0.63-1.049-1.364-2.098-2.098-3.252c-1.259-1.783-2.414-3.672-3.567-5.456
			C4.657,5.653,3.503,3.765,2.349,1.876c-0.209-0.21-0.209-0.525-0.105-0.839c0.105-0.315,0.315-0.524,0.525-0.629
			c0.21-0.21,0.524-0.21,0.839-0.21c0.314,0,0.524,0.21,0.734,0.524C6.021,3.24,7.7,5.863,9.378,8.381
			c1.679,2.518,3.253,5.141,5.036,7.659c0.21,0.419,0.524,0.839,0.734,1.259c0.21,0.419,0.524,0.839,0.839,1.259
			c0.104,0.21,0.315,0.419,0.419,0.629c0.105,0.21,0.21,0.524,0.21,0.734v4.931v2.729V33.561L16.617,33.561z M18.401,17.719
			c-0.21,0.314-0.524,0.419-0.839,0.525c-0.314,0-0.629,0-0.839-0.21c-0.21-0.209-0.419-0.314-0.524-0.629s-0.105-0.524,0.209-0.839
			c1.679-2.623,3.357-5.246,5.141-7.868c1.678-2.623,3.357-5.246,5.141-7.869c0.21-0.314,0.525-0.524,0.735-0.524
			c0.314,0,0.524,0,0.839,0.21c0.21,0,0.42,0.209,0.524,0.524c0.105,0.314,0.105,0.525-0.209,0.839
			C26.899,4.5,25.22,7.123,23.437,9.745C21.758,12.473,20.08,15.096,18.401,17.719z"/>
		<path id="XMLID_25_" fill="#FFFFFF" d="M83.448,36.289v0.629c0,0.734-0.209,1.364-0.734,1.784
			c-0.524,0.419-1.049,0.629-1.783,0.734c-0.42,0-0.63-0.105-0.839-0.315c-0.21-0.209-0.21-0.524-0.21-0.734
			c0-0.314,0.105-0.524,0.315-0.734c0.21-0.209,0.42-0.42,0.735-0.42c0.105,0,0.209-0.104,0.209-0.419
			c0.105-0.314,0.105-0.63,0.105-0.944s0-0.734,0-1.049c0-0.315,0-0.525,0-0.63v-0.734V1.562c0-0.42,0.105-0.629,0.315-0.84
			c0.209-0.209,0.524-0.209,0.734-0.209s0.524,0.105,0.734,0.209c0.209,0.21,0.314,0.42,0.314,0.84v9.547L83.448,36.289
			L83.448,36.289z M102.543,37.443c0.209,0.314,0.42,0.629,0.314,1.049c0,0.314-0.209,0.629-0.419,0.839s-0.524,0.315-0.839,0.42
			s-0.629-0.104-0.839-0.42c-2.623-3.042-5.246-6.085-7.869-9.232c-2.623-3.043-5.246-6.19-7.764-9.232
			c-0.524-0.63-0.524-1.259,0-1.889c2.623-3.042,5.246-6.19,7.764-9.232c2.623-3.042,5.246-6.19,7.869-9.232
			c0.21-0.315,0.524-0.524,0.839-0.42c0.315,0,0.629,0.21,0.839,0.42c0.21,0.209,0.314,0.524,0.419,0.839
			c0,0.315-0.105,0.735-0.314,1.05c-2.623,3.042-5.246,6.084-7.764,9.232c-2.623,3.042-5.246,6.19-7.764,9.232v-1.889
			c2.624,3.043,5.246,6.085,7.764,9.232C97.402,31.357,100.025,34.4,102.543,37.443z"/>
		<path id="XMLID_22_" fill="#FFFFFF" d="M126.568,18.768c0.42,0,0.63,0.105,0.84,0.314c0.21,0.21,0.314,0.525,0.314,0.839
			s-0.104,0.524-0.314,0.84c-0.21,0.209-0.42,0.314-0.84,0.314h-16.682c-0.314,0-0.629-0.105-0.839-0.314
			c-0.21-0.21-0.315-0.525-0.315-0.84V1.352c0-0.314,0.105-0.629,0.315-0.839c0.21-0.21,0.524-0.315,0.839-0.315h20.459
			c0.42,0,0.629,0.105,0.839,0.315c0.21,0.209,0.21,0.524,0.21,0.734s-0.104,0.524-0.21,0.734c-0.104,0.21-0.419,0.314-0.839,0.314
			h-20.459c0.21-0.209,0.42-0.419,0.525-0.524c0.209-0.209,0.419-0.42,0.524-0.524v18.57c-0.21-0.21-0.42-0.42-0.524-0.63
			c-0.211-0.21-0.42-0.419-0.525-0.629h16.682V18.768L126.568,18.768z M110.937,38.597c-0.42-0.314-0.735-0.734-1.154-1.153h20.458
			c0.42,0,0.63,0.104,0.84,0.314s0.21,0.524,0.21,0.734c0,0.314-0.105,0.524-0.21,0.734c-0.21,0.21-0.42,0.314-0.84,0.314h-20.458
			c-0.314,0-0.63-0.104-0.84-0.314s-0.314-0.524-0.314-0.84V23.594c0-0.419,0.104-0.63,0.314-0.839
			c0.21-0.21,0.525-0.315,0.734-0.315c0.315,0,0.524,0.105,0.735,0.315c0.209,0.209,0.314,0.42,0.314,0.839L110.937,38.597
			L110.937,38.597z"/>
		<path id="XMLID_20_" fill="#FFFFFF" d="M140.837,33.561v2.938v0.629c0,0.734-0.21,1.364-0.734,1.784
			c-0.524,0.419-1.049,0.734-1.783,0.734c-0.42,0-0.63-0.105-0.84-0.315s-0.314-0.524-0.314-0.734s0.104-0.524,0.314-0.839
			c0.21-0.21,0.42-0.42,0.84-0.42c0.104,0,0.21-0.105,0.21-0.42s0.104-0.629,0.104-0.944c0-0.314,0-0.734,0-1.049s0-0.524,0-0.63
			v-0.734V1.352c0-0.524,0.21-0.839,0.734-1.049s0.839-0.105,1.259,0.21c0.63,0.734,1.469,1.783,2.623,3.042
			c1.049,1.364,2.309,2.728,3.777,4.406c1.363,1.679,2.832,3.357,4.511,5.246c1.574,1.888,3.253,3.777,4.932,5.77
			s3.252,3.882,4.931,5.771c1.574,1.889,3.147,3.672,4.512,5.351c1.469,1.679,2.728,3.147,3.882,4.512
			c1.153,1.363,1.993,2.413,2.728,3.147c-0.314,0.104-0.63,0.314-1.049,0.419c-0.42,0.105-0.63,0.21-1.049,0.42V1.352
			c0-0.419,0.104-0.629,0.314-0.839c0.209-0.21,0.524-0.315,0.839-0.315s0.524,0.105,0.839,0.315
			c0.315,0.209,0.315,0.42,0.315,0.839v37.245c0,0.21-0.105,0.42-0.21,0.63c-0.105,0.21-0.314,0.314-0.524,0.42
			c-0.21,0.104-0.42,0.104-0.63,0.104s-0.42-0.104-0.629-0.314c-0.84-1.05-2.099-2.519-3.777-4.407
			c-1.679-1.888-3.462-4.091-5.456-6.505c-1.993-2.413-4.196-4.931-6.505-7.554c-2.308-2.623-4.405-5.141-6.504-7.554
			s-3.882-4.616-5.561-6.609c-1.679-1.994-2.938-3.462-3.882-4.512c0.314-0.104,0.629-0.209,0.944-0.314
			c0.314-0.105,0.629-0.315,0.944-0.419L140.837,33.561L140.837,33.561z"/>
		<path id="XMLID_6_" fill="#FFFFFF" d="M180.495,39.017c-0.105,0.314-0.314,0.524-0.63,0.63c-0.314,0.104-0.629,0.104-0.839,0.104
			s-0.525-0.21-0.63-0.524c-0.21-0.21-0.21-0.524-0.104-0.84c0.839-2.518,1.679-4.931,2.413-7.448
			c0.734-2.519,1.573-4.932,2.412-7.449c0.211-0.525,0.525-0.84,1.155-0.84h14.478c0.524,0,0.944,0.314,1.154,0.84
			c0.84,2.518,1.679,4.931,2.413,7.449c0.734,2.518,1.573,4.931,2.413,7.448c0.104,0.315,0.104,0.63-0.104,0.84
			c-0.21,0.21-0.42,0.42-0.735,0.524c-0.314,0.104-0.524,0.104-0.839-0.104c-0.314-0.105-0.524-0.315-0.63-0.63
			c-0.42-1.259-0.839-2.623-1.363-4.302s-0.944-3.147-1.469-4.616c-0.524-1.679-1.154-3.462-1.679-5.246h-12.8
			c-0.524,1.784-1.154,3.463-1.679,5.246c-0.524,1.469-0.944,2.938-1.469,4.616C181.334,36.289,180.915,37.758,180.495,39.017z
			 M198.646,19.712c0.104,0.315,0.104,0.63-0.104,0.84c-0.211,0.21-0.42,0.419-0.735,0.524c-0.314,0.104-0.524,0.104-0.839-0.105
			c-0.314-0.104-0.524-0.314-0.63-0.629c-1.049-3.147-1.993-6.295-3.042-9.338c-1.05-3.042-1.994-6.19-2.938-9.337h2.203
			c-0.944,3.147-1.994,6.295-2.938,9.337c-1.049,3.042-1.993,6.19-3.042,9.338c-0.104,0.314-0.314,0.524-0.63,0.629
			c-0.314,0.105-0.629,0.105-0.839,0.105c-0.314-0.105-0.524-0.21-0.63-0.524c-0.209-0.21-0.209-0.524-0.104-0.84l5.98-18.675
			c0.209-0.524,0.524-0.839,1.049-0.839s0.944,0.315,1.049,0.839L198.646,19.712z"/>
	</g>
</g>
</svg>
